<svg xmlns="http://www.w3.org/2000/svg" viewBox="0 0 598 844"><defs><style>.cls-1,.cls-2,.cls-3,.cls-4{fill-rule:evenodd;}.cls-2{fill:#fff;}.cls-3{fill:#9f9f9f;}.cls-4{fill:none;}</style></defs><title>visitenkarte logo</title><g id="BG"><polyline class="cls-1" points="183.67 445.87 184.09 436.43 185.35 427.07 187.43 417.86 190.32 408.87 194 400.17 198.44 391.84 203.6 383.93 209.44 376.51 215.92 369.64 222.99 363.37 230.58 357.75 238.64 352.83 247.1 348.64 255.91 345.23 255.91 383.34 323.89 383.66 323.89 345.23 332.7 348.64 341.16 352.83 349.23 357.75 356.82 363.37 363.88 369.64 370.36 376.51 376.2 383.93 381.36 391.84 385.8 400.17 389.48 408.87 392.37 417.86 394.45 427.07 395.71 436.43 396.13 445.87 395.68 455.67 394.32 465.39 392.07 474.94 388.95 484.24 384.99 493.22 380.22 501.79 374.67 509.88 368.4 517.43 361.47 524.37 353.92 530.64 345.82 536.18 337.25 540.96 328.27 544.92 318.97 548.04 309.42 550.29 299.7 551.64 289.9 552.1 280.1 551.64 270.38 550.29 260.83 548.04 251.53 544.92 242.55 540.96 233.98 536.18 225.88 530.64 218.34 524.37 211.4 517.43 205.13 509.88 199.58 501.79 194.81 493.22 190.85 484.24 187.73 474.94 185.48 465.39 184.13 455.67 183.67 445.87"/><g id="MR_SHADOW_white" data-name="MR SHADOW white"><polyline class="cls-2" points="219.08 414 219.08 435.25 190.75 435.25 190.75 414 219.08 414"/><polyline class="cls-2" points="360.72 414 389.05 414 389.05 435.25 360.72 435.25 360.72 414"/><polyline class="cls-2" points="319.9 481.53 341.14 481.53 341.14 508.44 319.9 508.44 319.9 481.53"/><polyline class="cls-2" points="259.9 481.53 259.9 508.44 238.66 508.44 238.66 481.53 259.9 481.53"/><polyline class="cls-2" points="323.89 383.66 307.94 383.66 307.94 327.6 307.53 322.19 306.34 316.89 304.37 311.83 301.68 307.12 298.31 302.86 294.36 299.14 289.9 296.05 294.64 296.38 299.28 297.36 303.74 298.98 307.94 301.21 312.22 304.37 315.97 308.17 319.07 312.5 321.46 317.26 323.08 322.33 323.89 327.6 323.89 383.66"/></g></g><g id="MR_SHADOW" data-name="MR SHADOW"><polyline class="cls-3" points="219.08 414 219.08 435.25 190.75 435.25 190.75 414 219.08 414"/><polyline class="cls-3" points="360.72 414 389.05 414 389.05 435.25 360.72 435.25 360.72 414"/><polyline class="cls-3" points="319.9 481.53 341.14 481.53 341.14 508.44 319.9 508.44 319.9 481.53"/><polyline class="cls-3" points="259.9 481.53 259.9 508.44 238.66 508.44 238.66 481.53 259.9 481.53"/><polyline class="cls-3" points="323.89 383.66 307.94 383.66 307.94 327.6 307.53 322.19 306.34 316.89 304.37 311.83 301.68 307.12 298.31 302.86 294.36 299.14 289.9 296.05 294.64 296.38 299.28 297.36 303.74 298.98 307.94 301.21 312.22 304.37 315.97 308.17 319.07 312.5 321.46 317.26 323.08 322.33 323.89 327.6 323.89 383.66"/></g><g id="MR_ROBOT" data-name="MR ROBOT"><polyline class="cls-2" points="159.08 402.07 163.06 401.71 167.03 402.1 170.86 403.23 174.41 405.06 177.55 407.51 180.18 410.51 177.03 411.15 174.09 412.48 171.54 414.44 169.97 411.18 167.88 408.24 165.31 405.69 162.35 403.61 159.08 402.07"/><path d="M179.18,410.93a1.43,1.43,0,0,1-1.15-.59,19.91,19.91,0,0,0-19.69-7.88,1.41,1.41,0,0,1-.52-2.78,22.76,22.76,0,0,1,22.51,9,1.42,1.42,0,0,1-1.15,2.25Z" transform="translate(1 1)"/><path d="M170.54,414.86a1.41,1.41,0,0,1-1-2.43,15.59,15.59,0,0,1,9.51-4.33,1.42,1.42,0,0,1,.24,2.82,12.82,12.82,0,0,0-7.78,3.54A1.38,1.38,0,0,1,170.54,414.86Z" transform="translate(1 1)"/><path d="M170.54,414.86a1.44,1.44,0,0,1-1.33-.91,19.77,19.77,0,0,0-11.62-11.55,1.42,1.42,0,0,1,1-2.66,22.67,22.67,0,0,1,13.28,13.2,1.41,1.41,0,0,1-1.32,1.92Z" transform="translate(1 1)"/><polyline class="cls-2" points="159.08 447.18 162.35 445.63 165.31 443.56 167.88 441.01 169.97 438.06 171.54 434.8 173.03 436.06 174.67 437.09 177.34 438.2 180.18 438.74 177.55 441.74 174.41 444.19 170.86 446.01 167.03 447.14 163.06 447.54 159.08 447.18"/><path d="M158.08,447.59a1.41,1.41,0,0,1-.49-2.74,19.77,19.77,0,0,0,11.62-11.55,1.42,1.42,0,0,1,2.65,1,22.67,22.67,0,0,1-13.28,13.2A1.45,1.45,0,0,1,158.08,447.59Z" transform="translate(1 1)"/><path d="M173.67,437.51a1.45,1.45,0,0,1-.67-.17,15.84,15.84,0,0,1-3.45-2.52,1.42,1.42,0,0,1,0-2,1.4,1.4,0,0,1,2,0,12.64,12.64,0,0,0,2.82,2,1.41,1.41,0,0,1,.57,1.92A1.4,1.4,0,0,1,173.67,437.51Z" transform="translate(1 1)"/><path d="M179.18,439.15h-.12a15.54,15.54,0,0,1-6.06-1.81,1.42,1.42,0,1,1,1.34-2.5,12.36,12.36,0,0,0,5,1.48,1.42,1.42,0,0,1-.12,2.83Z" transform="translate(1 1)"/><path d="M161.92,448a22.83,22.83,0,0,1-4.1-.38,1.42,1.42,0,0,1-1.13-1.65,1.4,1.4,0,0,1,1.65-1.13A19.91,19.91,0,0,0,178,436.91a1.42,1.42,0,0,1,2.3,1.66A22.8,22.8,0,0,1,161.92,448Z" transform="translate(1 1)"/><polyline class="cls-2" points="420.72 402.07 417.45 403.61 414.49 405.69 411.92 408.24 409.83 411.18 408.26 414.44 405.71 412.48 402.78 411.15 399.62 410.51 402.25 407.51 405.4 405.06 408.94 403.23 412.77 402.1 416.74 401.71 420.72 402.07"/><path d="M407.26,414.86a1.51,1.51,0,0,1-.5-.09,1.42,1.42,0,0,1-.82-1.83,22.67,22.67,0,0,1,13.28-13.2,1.42,1.42,0,1,1,1,2.66A19.8,19.8,0,0,0,408.59,414,1.44,1.44,0,0,1,407.26,414.86Z" transform="translate(1 1)"/><path d="M407.26,414.86a1.38,1.38,0,0,1-1-.4,12.82,12.82,0,0,0-7.78-3.54,1.42,1.42,0,1,1,.24-2.82,15.59,15.59,0,0,1,9.51,4.33,1.41,1.41,0,0,1-1,2.43Z" transform="translate(1 1)"/><path d="M398.62,410.93a1.42,1.42,0,0,1-1.15-2.25,22.75,22.75,0,0,1,22.51-9,1.41,1.41,0,0,1-.52,2.78,19.92,19.92,0,0,0-19.69,7.88A1.43,1.43,0,0,1,398.62,410.93Z" transform="translate(1 1)"/><polyline class="cls-2" points="420.72 447.18 416.74 447.54 412.77 447.14 408.94 446.01 405.4 444.19 402.25 441.74 399.62 438.74 402.46 438.2 405.13 437.09 406.78 436.06 408.26 434.8 409.83 438.06 411.92 441.01 414.49 443.56 417.45 445.63 420.72 447.18"/><path d="M415.88,448a22.8,22.8,0,0,1-18.41-9.38,1.42,1.42,0,1,1,2.3-1.66,19.94,19.94,0,0,0,19.69,7.88,1.41,1.41,0,0,1,.52,2.78A22.83,22.83,0,0,1,415.88,448Z" transform="translate(1 1)"/><path d="M398.62,439.15a1.42,1.42,0,0,1-.12-2.83,12.36,12.36,0,0,0,5-1.48,1.42,1.42,0,0,1,1.35,2.5,15.59,15.59,0,0,1-6.07,1.81Z" transform="translate(1 1)"/><path d="M404.13,437.51a1.4,1.4,0,0,1-1.24-.75,1.42,1.42,0,0,1,.57-1.92,12.64,12.64,0,0,0,2.82-2,1.41,1.41,0,1,1,2,2,16,16,0,0,1-3.44,2.52A1.52,1.52,0,0,1,404.13,437.51Z" transform="translate(1 1)"/><path d="M419.72,447.59a1.45,1.45,0,0,1-.5-.08,22.67,22.67,0,0,1-13.28-13.2,1.42,1.42,0,1,1,2.65-1,19.8,19.8,0,0,0,11.62,11.55,1.41,1.41,0,0,1,.84,1.82A1.43,1.43,0,0,1,419.72,447.59Z" transform="translate(1 1)"/><path d="M254.91,377.65a.06.06,0,0,1-.06-.06V344.23a.05.05,0,0,1,.06-.06.06.06,0,0,1,.06.06v33.36A.06.06,0,0,1,254.91,377.65Z" transform="translate(1 1)"/><path d="M322.89,377.65a.06.06,0,0,1-.06-.06V344.23a.06.06,0,0,1,.06-.06.05.05,0,0,1,.06.06v33.36A.06.06,0,0,1,322.89,377.65Z" transform="translate(1 1)"/><polyline class="cls-2" points="219.08 392.75 360.72 392.75 360.72 481.53 219.08 481.53 219.08 392.75"/><path d="M359.72,393.17H218.08a1.42,1.42,0,0,1,0-2.83H359.72a1.42,1.42,0,0,1,0,2.83Z" transform="translate(1 1)"/><path d="M359.72,481.94a1.42,1.42,0,0,1-1.42-1.41V391.76a1.42,1.42,0,1,1,2.83,0v88.77A1.41,1.41,0,0,1,359.72,481.94Z" transform="translate(1 1)"/><path d="M359.72,481.94H218.08a1.42,1.42,0,0,1,0-2.83H359.72a1.42,1.42,0,0,1,0,2.83Z" transform="translate(1 1)"/><path d="M218.08,481.94a1.41,1.41,0,0,1-1.41-1.41V391.76a1.42,1.42,0,1,1,2.83,0v88.77A1.42,1.42,0,0,1,218.08,481.94Z" transform="translate(1 1)"/><path d="M322.89,384.07a1.41,1.41,0,0,1-1.41-1.41v-51a1.42,1.42,0,1,1,2.83,0v51A1.41,1.41,0,0,1,322.89,384.07Z" transform="translate(1 1)"/><path d="M322.89,384.07h-68a1.42,1.42,0,1,1,0-2.83h68a1.42,1.42,0,1,1,0,2.83Z" transform="translate(1 1)"/><path d="M254.91,384.07a1.42,1.42,0,0,1-1.42-1.41v-51a1.42,1.42,0,1,1,2.83,0v51A1.41,1.41,0,0,1,254.91,384.07Z" transform="translate(1 1)"/><path d="M218.08,435.66a1.41,1.41,0,0,1-1.41-1.41V413a1.42,1.42,0,1,1,2.83,0v21.25A1.42,1.42,0,0,1,218.08,435.66Z" transform="translate(1 1)"/><path d="M218.08,435.66H189.75a1.42,1.42,0,0,1,0-2.83h28.33a1.42,1.42,0,1,1,0,2.83Z" transform="translate(1 1)"/><path d="M189.75,435.66a1.41,1.41,0,0,1-1.41-1.41V413a1.42,1.42,0,1,1,2.83,0v21.25A1.41,1.41,0,0,1,189.75,435.66Z" transform="translate(1 1)"/><path d="M218.08,414.42H189.75a1.42,1.42,0,0,1,0-2.84h28.33a1.42,1.42,0,0,1,0,2.84Z" transform="translate(1 1)"/><polyline class="cls-2" points="167.22 424.62 167.66 421.12 168.95 417.84 171.02 414.98 173.72 412.71 176.91 411.19 180.37 410.5 183.68 410.65 186.87 411.56 189.75 413.2 192.18 415.45 194.02 418.22 195.16 421.33 195.55 424.62 195.08 428.24 193.7 431.62 191.51 434.53 188.65 436.78 185.3 438.24 181.7 438.78 178.07 438.39 174.67 437.09 172.16 435.37 170.08 433.15 168.52 430.54 167.55 427.65 167.22 424.62"/><path d="M166.22,425a1.41,1.41,0,0,1-1.41-1.42,15.64,15.64,0,0,1,14.45-15.54,1.42,1.42,0,0,1,.21,2.83,12.79,12.79,0,0,0-11.83,12.71A1.42,1.42,0,0,1,166.22,425Z" transform="translate(1 1)"/><path d="M194.55,425a1.42,1.42,0,0,1-1.42-1.42c0-.3,0-.61,0-.91a12.75,12.75,0,0,0-13.63-11.8,1.42,1.42,0,1,1-.21-2.83,15.61,15.61,0,0,1,16.67,14.42c0,.37,0,.75,0,1.12A1.42,1.42,0,0,1,194.55,425Z" transform="translate(1 1)"/><path d="M180.39,439.2a15.61,15.61,0,0,1-7.39-1.86,1.42,1.42,0,1,1,1.34-2.5,12.74,12.74,0,0,0,18.79-11.22,1.42,1.42,0,0,1,2.84,0A15.6,15.6,0,0,1,180.39,439.2Z" transform="translate(1 1)"/><path d="M173.67,437.51a1.45,1.45,0,0,1-.67-.17,15.55,15.55,0,0,1-8.19-13.72,1.42,1.42,0,0,1,2.83,0,12.72,12.72,0,0,0,6.7,11.22,1.42,1.42,0,0,1-.67,2.67Z" transform="translate(1 1)"/><path d="M388.05,414.42H359.72a1.42,1.42,0,0,1,0-2.84h28.33a1.42,1.42,0,0,1,0,2.84Z" transform="translate(1 1)"/><path d="M388.05,435.66a1.41,1.41,0,0,1-1.42-1.41V413a1.42,1.42,0,1,1,2.83,0v21.25A1.41,1.41,0,0,1,388.05,435.66Z" transform="translate(1 1)"/><path d="M388.05,435.66H359.72a1.42,1.42,0,1,1,0-2.83h28.33a1.42,1.42,0,0,1,0,2.83Z" transform="translate(1 1)"/><path d="M359.72,435.66a1.42,1.42,0,0,1-1.42-1.41V413a1.42,1.42,0,1,1,2.83,0v21.25A1.41,1.41,0,0,1,359.72,435.66Z" transform="translate(1 1)"/><polyline class="cls-2" points="412.58 424.62 412.25 427.65 411.29 430.54 409.73 433.15 407.64 435.37 405.13 437.09 401.73 438.39 398.1 438.78 394.5 438.24 391.15 436.78 388.29 434.53 386.1 431.62 384.72 428.24 384.25 424.62 384.64 421.33 385.78 418.22 387.62 415.45 390.05 413.2 392.93 411.56 396.12 410.65 399.43 410.5 402.89 411.19 406.08 412.71 408.78 414.98 410.85 417.84 412.14 421.12 412.58 424.62"/><path d="M404.13,437.51a1.4,1.4,0,0,1-1.24-.75,1.42,1.42,0,0,1,.57-1.92,12.72,12.72,0,0,0,6.7-11.22,1.42,1.42,0,0,1,2.84,0,15.57,15.57,0,0,1-8.19,13.72A1.52,1.52,0,0,1,404.13,437.51Z" transform="translate(1 1)"/><path d="M397.43,439.21a15.75,15.75,0,0,1-4.49-.66,15.61,15.61,0,0,1-11.11-14.93,1.42,1.42,0,0,1,2.84,0,12.86,12.86,0,0,0,1.52,6.05,12.75,12.75,0,0,0,17.27,5.17,1.42,1.42,0,0,1,1.35,2.5A15.56,15.56,0,0,1,397.43,439.21Z" transform="translate(1 1)"/><path d="M383.25,425a1.42,1.42,0,0,1-1.42-1.42A15.6,15.6,0,0,1,397.42,408c.37,0,.74,0,1.12,0a1.42,1.42,0,1,1-.21,2.83c-.3,0-.61,0-.91,0a12.76,12.76,0,0,0-12.75,12.74A1.42,1.42,0,0,1,383.25,425Z" transform="translate(1 1)"/><path d="M411.58,425a1.42,1.42,0,0,1-1.42-1.42,12.79,12.79,0,0,0-11.83-12.71,1.43,1.43,0,0,1-1.31-1.52,1.45,1.45,0,0,1,1.52-1.31A15.65,15.65,0,0,1,413,423.62,1.42,1.42,0,0,1,411.58,425Z" transform="translate(1 1)"/><path d="M340.14,481.94H318.9a1.42,1.42,0,1,1,0-2.83h21.24a1.42,1.42,0,1,1,0,2.83Z" transform="translate(1 1)"/><path d="M340.14,508.86a1.42,1.42,0,0,1-1.41-1.42V480.53a1.42,1.42,0,1,1,2.83,0v26.91A1.42,1.42,0,0,1,340.14,508.86Z" transform="translate(1 1)"/><path d="M340.14,508.86H318.9a1.42,1.42,0,1,1,0-2.84h21.24a1.42,1.42,0,1,1,0,2.84Z" transform="translate(1 1)"/><path d="M318.9,508.86a1.43,1.43,0,0,1-1.42-1.42V480.53a1.42,1.42,0,0,1,2.84,0v26.91A1.43,1.43,0,0,1,318.9,508.86Z" transform="translate(1 1)"/><polyline class="cls-2" points="315.59 519.22 315.59 508.44 356.41 508.44 358.6 508.79 360.57 509.79 362.14 511.36 363.14 513.33 363.49 515.52 363.49 519.22 315.59 519.22"/><path d="M314.59,519.64a1.42,1.42,0,0,1-1.42-1.42V507.44a1.42,1.42,0,1,1,2.83,0v10.78A1.41,1.41,0,0,1,314.59,519.64Z" transform="translate(1 1)"/><path d="M355.41,508.86H314.59a1.42,1.42,0,1,1,0-2.84h40.82a1.42,1.42,0,0,1,0,2.84Z" transform="translate(1 1)"/><polyline class="cls-4" points="0 0 598 0 598 844 0 844 0 0"/><path d="M362.49,515.94a1.43,1.43,0,0,1-1.42-1.42,5.67,5.67,0,0,0-5.66-5.66,1.42,1.42,0,0,1,0-2.84,8.52,8.52,0,0,1,8.5,8.5A1.43,1.43,0,0,1,362.49,515.94Z" transform="translate(1 1)"/><path d="M362.49,519.64a1.42,1.42,0,0,1-1.42-1.42v-3.7a1.42,1.42,0,0,1,2.84,0v3.7A1.42,1.42,0,0,1,362.49,519.64Z" transform="translate(1 1)"/><path d="M362.49,519.64h-47.9a1.42,1.42,0,1,1,0-2.83h47.9a1.42,1.42,0,1,1,0,2.83Z" transform="translate(1 1)"/><path d="M258.9,508.86a1.42,1.42,0,0,1-1.41-1.42V480.53a1.42,1.42,0,1,1,2.83,0v26.91A1.43,1.43,0,0,1,258.9,508.86Z" transform="translate(1 1)"/><path d="M258.9,508.86H237.66a1.42,1.42,0,1,1,0-2.84H258.9a1.42,1.42,0,1,1,0,2.84Z" transform="translate(1 1)"/><path d="M237.66,508.86a1.42,1.42,0,0,1-1.42-1.42V480.53a1.42,1.42,0,1,1,2.83,0v26.91A1.42,1.42,0,0,1,237.66,508.86Z" transform="translate(1 1)"/><path d="M258.9,481.94H237.66a1.42,1.42,0,1,1,0-2.83H258.9a1.42,1.42,0,1,1,0,2.83Z" transform="translate(1 1)"/><polyline class="cls-2" points="264.15 519.22 216.25 519.22 216.25 515.52 216.6 513.33 217.6 511.36 219.17 509.79 221.14 508.79 223.33 508.44 264.15 508.44 264.15 519.22"/><path d="M263.15,519.64h-47.9a1.42,1.42,0,1,1,0-2.83h47.9a1.42,1.42,0,1,1,0,2.83Z" transform="translate(1 1)"/><path d="M215.25,519.64a1.42,1.42,0,0,1-1.42-1.42v-3.7a1.42,1.42,0,0,1,2.84,0v3.7A1.42,1.42,0,0,1,215.25,519.64Z" transform="translate(1 1)"/><path d="M215.25,515.94a1.43,1.43,0,0,1-1.42-1.42,8.52,8.52,0,0,1,8.5-8.5,1.42,1.42,0,0,1,0,2.84,5.67,5.67,0,0,0-5.66,5.66A1.43,1.43,0,0,1,215.25,515.94Z" transform="translate(1 1)"/><path d="M263.15,508.86H222.33a1.42,1.42,0,0,1,0-2.84h40.82a1.42,1.42,0,1,1,0,2.84Z" transform="translate(1 1)"/><path d="M263.15,519.64a1.42,1.42,0,0,1-1.42-1.42V507.44a1.42,1.42,0,0,1,2.84,0v10.78A1.42,1.42,0,0,1,263.15,519.64Z" transform="translate(1 1)"/><path d="M322.9,333.08h-.11a1.42,1.42,0,0,1-1.31-1.52,32.67,32.67,0,1,0-65.16,0,1.42,1.42,0,0,1-1.31,1.52,1.41,1.41,0,0,1-1.51-1.31,35.5,35.5,0,1,1,70.81,0A1.42,1.42,0,0,1,322.9,333.08Z" transform="translate(1 1)"/><path d="M322.89,384.07a1.41,1.41,0,0,1-1.41-1.41v-51a1.42,1.42,0,1,1,2.83,0v51A1.41,1.41,0,0,1,322.89,384.07Z" transform="translate(1 1)"/><path d="M322.89,384.07h-68a1.42,1.42,0,1,1,0-2.83h68a1.42,1.42,0,1,1,0,2.83Z" transform="translate(1 1)"/><path d="M254.91,384.07a1.42,1.42,0,0,1-1.42-1.41v-51a1.42,1.42,0,1,1,2.83,0v51A1.41,1.41,0,0,1,254.91,384.07Z" transform="translate(1 1)"/><polyline class="cls-1" points="332.41 414.92 332.05 416.03 331.11 416.72 329.94 416.72 328.99 416.03 328.63 414.92 328.99 413.81 329.94 413.13 331.11 413.13 332.05 413.81 332.41 414.92"/><path d="M329.52,417.23a3.31,3.31,0,0,1-3.3-3.31,1.42,1.42,0,1,1,2.83,0,.47.47,0,1,0,.94,0,1.42,1.42,0,1,1,2.84,0A3.32,3.32,0,0,1,329.52,417.23Z" transform="translate(1 1)"/><path d="M331.41,415.34a1.43,1.43,0,0,1-1.42-1.42.47.47,0,1,0-.94,0,1.42,1.42,0,1,1-2.83,0,3.31,3.31,0,0,1,6.61,0A1.43,1.43,0,0,1,331.41,415.34Z" transform="translate(1 1)"/><polyline class="cls-1" points="339.49 427.19 339.13 428.3 338.19 428.98 337.02 428.98 336.08 428.3 335.71 427.19 336.08 426.08 337.02 425.39 338.19 425.39 339.13 426.08 339.49 427.19"/><path d="M336.6,429.49a3.3,3.3,0,0,1-3.3-3.3,1.42,1.42,0,1,1,2.83,0,.47.47,0,0,0,.47.47.48.48,0,0,0,.48-.47,1.42,1.42,0,1,1,2.83,0A3.31,3.31,0,0,1,336.6,429.49Z" transform="translate(1 1)"/><path d="M338.49,427.6a1.41,1.41,0,0,1-1.41-1.41.49.49,0,0,0-.48-.48.48.48,0,0,0-.47.48,1.42,1.42,0,0,1-2.83,0,3.31,3.31,0,1,1,6.61,0A1.42,1.42,0,0,1,338.49,427.6Z" transform="translate(1 1)"/><polyline class="cls-1" points="325.33 427.19 324.97 428.3 324.02 428.98 322.86 428.98 321.91 428.3 321.55 427.19 321.91 426.08 322.86 425.39 324.02 425.39 324.97 426.08 325.33 427.19"/><path d="M322.44,429.49a3.3,3.3,0,0,1-3.3-3.3,1.42,1.42,0,1,1,2.83,0,.47.47,0,0,0,.94,0,1.42,1.42,0,1,1,2.83,0A3.3,3.3,0,0,1,322.44,429.49Z" transform="translate(1 1)"/><path d="M324.33,427.6a1.42,1.42,0,0,1-1.42-1.41.47.47,0,1,0-.94,0,1.42,1.42,0,0,1-2.83,0,3.3,3.3,0,1,1,6.6,0A1.41,1.41,0,0,1,324.33,427.6Z" transform="translate(1 1)"/><polyline class="cls-1" points="318.25 414.92 317.89 416.03 316.94 416.72 315.77 416.72 314.83 416.03 314.47 414.92 314.83 413.81 315.77 413.13 316.94 413.13 317.89 413.81 318.25 414.92"/><path d="M315.36,417.23a3.32,3.32,0,0,1-3.31-3.31,1.42,1.42,0,1,1,2.84,0,.47.47,0,1,0,.94,0,1.42,1.42,0,1,1,2.83,0A3.31,3.31,0,0,1,315.36,417.23Z" transform="translate(1 1)"/><path d="M317.25,415.34a1.42,1.42,0,0,1-1.42-1.42.47.47,0,1,0-.94,0,1.42,1.42,0,1,1-2.84,0,3.31,3.31,0,0,1,6.61,0A1.42,1.42,0,0,1,317.25,415.34Z" transform="translate(1 1)"/><polyline class="cls-1" points="311.17 427.19 310.8 428.3 309.86 428.98 308.69 428.98 307.75 428.3 307.39 427.19 307.75 426.08 308.69 425.39 309.86 425.39 310.8 426.08 311.17 427.19"/><path d="M308.28,429.49a3.31,3.31,0,0,1-3.31-3.3,1.42,1.42,0,1,1,2.83,0,.48.48,0,0,0,.48.47.47.47,0,0,0,.47-.47,1.42,1.42,0,1,1,2.83,0A3.3,3.3,0,0,1,308.28,429.49Z" transform="translate(1 1)"/><path d="M310.17,427.6a1.41,1.41,0,0,1-1.42-1.41.48.48,0,0,0-.47-.48.49.49,0,0,0-.48.48,1.42,1.42,0,0,1-2.83,0,3.31,3.31,0,1,1,6.61,0A1.41,1.41,0,0,1,310.17,427.6Z" transform="translate(1 1)"/><polyline class="cls-1" points="318.25 439.45 317.89 440.56 316.94 441.25 315.77 441.25 314.83 440.56 314.47 439.45 314.83 438.34 315.77 437.66 316.94 437.66 317.89 438.34 318.25 439.45"/><path d="M315.36,441.76a3.31,3.31,0,0,1-3.31-3.31,1.42,1.42,0,0,1,2.84,0,.47.47,0,1,0,.94,0,1.42,1.42,0,0,1,2.83,0A3.31,3.31,0,0,1,315.36,441.76Z" transform="translate(1 1)"/><path d="M317.25,439.87a1.41,1.41,0,0,1-1.42-1.42.47.47,0,0,0-.94,0,1.42,1.42,0,0,1-2.84,0,3.31,3.31,0,0,1,6.61,0A1.41,1.41,0,0,1,317.25,439.87Z" transform="translate(1 1)"/><polyline class="cls-1" points="332.41 439.45 332.05 440.56 331.11 441.25 329.94 441.25 328.99 440.56 328.63 439.45 328.99 438.34 329.94 437.66 331.11 437.66 332.05 438.34 332.41 439.45"/><path d="M329.52,441.76a3.31,3.31,0,0,1-3.3-3.31,1.42,1.42,0,0,1,2.83,0,.47.47,0,1,0,.94,0,1.42,1.42,0,0,1,2.84,0A3.31,3.31,0,0,1,329.52,441.76Z" transform="translate(1 1)"/><path d="M331.41,439.87a1.42,1.42,0,0,1-1.42-1.42.47.47,0,0,0-.94,0,1.42,1.42,0,1,1-2.83,0,3.31,3.31,0,0,1,6.61,0A1.42,1.42,0,0,1,331.41,439.87Z" transform="translate(1 1)"/><path d="M324.31,326.5a35.5,35.5,0,0,0-70.82,5.19v51a1.42,1.42,0,0,0,1.42,1.41h68a1.41,1.41,0,0,0,1.42-1.41v-51A37.17,37.17,0,0,0,324.31,326.5Zm-37.84-29.95a32.68,32.68,0,0,1,35,35v49.68H256.32V331.56A32.71,32.71,0,0,1,286.47,296.55Z" transform="translate(1 1)"/><path d="M210.29,435.66a1.41,1.41,0,0,1-1.41-1.41V413a1.42,1.42,0,1,1,2.83,0v21.25A1.42,1.42,0,0,1,210.29,435.66Z" transform="translate(1 1)"/><path d="M200.38,435.66a1.42,1.42,0,0,1-1.42-1.41V413a1.42,1.42,0,1,1,2.83,0v21.25A1.41,1.41,0,0,1,200.38,435.66Z" transform="translate(1 1)"/><path d="M367.51,435.66a1.42,1.42,0,0,1-1.42-1.41V413a1.42,1.42,0,1,1,2.83,0v21.25A1.41,1.41,0,0,1,367.51,435.66Z" transform="translate(1 1)"/><path d="M377.42,435.66a1.41,1.41,0,0,1-1.41-1.41V413a1.42,1.42,0,1,1,2.83,0v21.25A1.41,1.41,0,0,1,377.42,435.66Z" transform="translate(1 1)"/><path d="M340.14,489.73H318.9a1.42,1.42,0,1,1,0-2.83h21.24a1.42,1.42,0,1,1,0,2.83Z" transform="translate(1 1)"/><path d="M340.14,499.65H318.9a1.42,1.42,0,1,1,0-2.83h21.24a1.42,1.42,0,1,1,0,2.83Z" transform="translate(1 1)"/><path d="M258.9,489.73H237.66a1.42,1.42,0,1,1,0-2.83H258.9a1.42,1.42,0,1,1,0,2.83Z" transform="translate(1 1)"/><path d="M258.9,499.65H237.66a1.42,1.42,0,1,1,0-2.83H258.9a1.42,1.42,0,1,1,0,2.83Z" transform="translate(1 1)"/><path d="M264.82,359.81a4.25,4.25,0,1,1,4.25-4.25A4.26,4.26,0,0,1,264.82,359.81Zm0-5.67a1.42,1.42,0,1,0,1.42,1.42A1.42,1.42,0,0,0,264.82,354.14Z" transform="translate(1 1)"/><path d="M313,359.81a4.25,4.25,0,1,1,4.25-4.25A4.26,4.26,0,0,1,313,359.81Zm0-5.67a1.42,1.42,0,1,0,1.42,1.42A1.43,1.43,0,0,0,313,354.14Z" transform="translate(1 1)"/><path d="M338.47,290.18a4.25,4.25,0,1,0-5.66,4v39.1h-9.92a1.42,1.42,0,0,0,0,2.83h11.33a1.42,1.42,0,0,0,1.42-1.42V294.17A4.24,4.24,0,0,0,338.47,290.18Zm-4.25,1.42a1.42,1.42,0,1,1,1.42-1.42A1.42,1.42,0,0,1,334.22,291.6Z" transform="translate(1 1)"/></g></svg>