<?xml version="1.0" encoding="utf-8"?>
<svg xmlns="http://www.w3.org/2000/svg" xmlns:xlink="http://www.w3.org/1999/xlink" xml:space="preserve" width="888" height="888" viewBox="0 0 888 888"><rect width="888" height="888" fill="#ffffff" x="0" y="0"/><g fill="#000000">
<g transform="translate(240,48) scale(4.12)"><rect width="6" height="6"/></g>
<g transform="translate(264,48) scale(4.12)"><rect width="6" height="6"/></g>
<g transform="translate(288,48) scale(4.12)"><rect width="6" height="6"/></g>
<g transform="translate(384,48) scale(4.12)"><rect width="6" height="6"/></g>
<g transform="translate(432,48) scale(4.12)"><rect width="6" height="6"/></g>
<g transform="translate(456,48) scale(4.12)"><rect width="6" height="6"/></g>
<g transform="translate(504,48) scale(4.12)"><rect width="6" height="6"/></g>
<g transform="translate(552,48) scale(4.12)"><rect width="6" height="6"/></g>
<g transform="translate(576,48) scale(4.12)"><rect width="6" height="6"/></g>
<g transform="translate(264,72) scale(4.12)"><rect width="6" height="6"/></g>
<g transform="translate(288,72) scale(4.12)"><rect width="6" height="6"/></g>
<g transform="translate(384,72) scale(4.12)"><rect width="6" height="6"/></g>
<g transform="translate(432,72) scale(4.12)"><rect width="6" height="6"/></g>
<g transform="translate(456,72) scale(4.12)"><rect width="6" height="6"/></g>
<g transform="translate(504,72) scale(4.12)"><rect width="6" height="6"/></g>
<g transform="translate(528,72) scale(4.12)"><rect width="6" height="6"/></g>
<g transform="translate(552,72) scale(4.12)"><rect width="6" height="6"/></g>
<g transform="translate(624,72) scale(4.12)"><rect width="6" height="6"/></g>
<g transform="translate(264,96) scale(4.12)"><rect width="6" height="6"/></g>
<g transform="translate(288,96) scale(4.12)"><rect width="6" height="6"/></g>
<g transform="translate(384,96) scale(4.12)"><rect width="6" height="6"/></g>
<g transform="translate(456,96) scale(4.12)"><rect width="6" height="6"/></g>
<g transform="translate(480,96) scale(4.12)"><rect width="6" height="6"/></g>
<g transform="translate(504,96) scale(4.12)"><rect width="6" height="6"/></g>
<g transform="translate(552,96) scale(4.12)"><rect width="6" height="6"/></g>
<g transform="translate(576,96) scale(4.12)"><rect width="6" height="6"/></g>
<g transform="translate(600,96) scale(4.12)"><rect width="6" height="6"/></g>
<g transform="translate(264,120) scale(4.12)"><rect width="6" height="6"/></g>
<g transform="translate(312,120) scale(4.12)"><rect width="6" height="6"/></g>
<g transform="translate(432,120) scale(4.12)"><rect width="6" height="6"/></g>
<g transform="translate(552,120) scale(4.12)"><rect width="6" height="6"/></g>
<g transform="translate(240,144) scale(4.12)"><rect width="6" height="6"/></g>
<g transform="translate(360,144) scale(4.12)"><rect width="6" height="6"/></g>
<g transform="translate(408,144) scale(4.12)"><rect width="6" height="6"/></g>
<g transform="translate(432,144) scale(4.12)"><rect width="6" height="6"/></g>
<g transform="translate(480,144) scale(4.12)"><rect width="6" height="6"/></g>
<g transform="translate(552,144) scale(4.12)"><rect width="6" height="6"/></g>
<g transform="translate(600,144) scale(4.12)"><rect width="6" height="6"/></g>
<g transform="translate(624,144) scale(4.12)"><rect width="6" height="6"/></g>
<g transform="translate(240,168) scale(4.12)"><rect width="6" height="6"/></g>
<g transform="translate(264,168) scale(4.12)"><rect width="6" height="6"/></g>
<g transform="translate(312,168) scale(4.12)"><rect width="6" height="6"/></g>
<g transform="translate(360,168) scale(4.12)"><rect width="6" height="6"/></g>
<g transform="translate(384,168) scale(4.12)"><rect width="6" height="6"/></g>
<g transform="translate(408,168) scale(4.12)"><rect width="6" height="6"/></g>
<g transform="translate(432,168) scale(4.12)"><rect width="6" height="6"/></g>
<g transform="translate(576,168) scale(4.12)"><rect width="6" height="6"/></g>
<g transform="translate(624,168) scale(4.12)"><rect width="6" height="6"/></g>
<g transform="translate(240,192) scale(4.12)"><rect width="6" height="6"/></g>
<g transform="translate(288,192) scale(4.12)"><rect width="6" height="6"/></g>
<g transform="translate(336,192) scale(4.12)"><rect width="6" height="6"/></g>
<g transform="translate(384,192) scale(4.12)"><rect width="6" height="6"/></g>
<g transform="translate(432,192) scale(4.12)"><rect width="6" height="6"/></g>
<g transform="translate(480,192) scale(4.12)"><rect width="6" height="6"/></g>
<g transform="translate(528,192) scale(4.12)"><rect width="6" height="6"/></g>
<g transform="translate(576,192) scale(4.12)"><rect width="6" height="6"/></g>
<g transform="translate(624,192) scale(4.12)"><rect width="6" height="6"/></g>
<g transform="translate(264,216) scale(4.12)"><rect width="6" height="6"/></g>
<g transform="translate(408,216) scale(4.12)"><rect width="6" height="6"/></g>
<g transform="translate(432,216) scale(4.12)"><rect width="6" height="6"/></g>
<g transform="translate(552,216) scale(4.12)"><rect width="6" height="6"/></g>
<g transform="translate(576,216) scale(4.12)"><rect width="6" height="6"/></g>
<g transform="translate(600,216) scale(4.12)"><rect width="6" height="6"/></g>
<g transform="translate(624,216) scale(4.12)"><rect width="6" height="6"/></g>
<g transform="translate(72,240) scale(4.12)"><rect width="6" height="6"/></g>
<g transform="translate(96,240) scale(4.12)"><rect width="6" height="6"/></g>
<g transform="translate(120,240) scale(4.12)"><rect width="6" height="6"/></g>
<g transform="translate(144,240) scale(4.12)"><rect width="6" height="6"/></g>
<g transform="translate(168,240) scale(4.12)"><rect width="6" height="6"/></g>
<g transform="translate(192,240) scale(4.12)"><rect width="6" height="6"/></g>
<g transform="translate(216,240) scale(4.12)"><rect width="6" height="6"/></g>
<g transform="translate(312,240) scale(4.12)"><rect width="6" height="6"/></g>
<g transform="translate(336,240) scale(4.12)"><rect width="6" height="6"/></g>
<g transform="translate(360,240) scale(4.12)"><rect width="6" height="6"/></g>
<g transform="translate(384,240) scale(4.12)"><rect width="6" height="6"/></g>
<g transform="translate(432,240) scale(4.12)"><rect width="6" height="6"/></g>
<g transform="translate(480,240) scale(4.12)"><rect width="6" height="6"/></g>
<g transform="translate(528,240) scale(4.12)"><rect width="6" height="6"/></g>
<g transform="translate(696,240) scale(4.12)"><rect width="6" height="6"/></g>
<g transform="translate(720,240) scale(4.12)"><rect width="6" height="6"/></g>
<g transform="translate(816,240) scale(4.12)"><rect width="6" height="6"/></g>
<g transform="translate(240,264) scale(4.12)"><rect width="6" height="6"/></g>
<g transform="translate(264,264) scale(4.12)"><rect width="6" height="6"/></g>
<g transform="translate(288,264) scale(4.12)"><rect width="6" height="6"/></g>
<g transform="translate(312,264) scale(4.12)"><rect width="6" height="6"/></g>
<g transform="translate(336,264) scale(4.12)"><rect width="6" height="6"/></g>
<g transform="translate(480,264) scale(4.12)"><rect width="6" height="6"/></g>
<g transform="translate(552,264) scale(4.12)"><rect width="6" height="6"/></g>
<g transform="translate(624,264) scale(4.12)"><rect width="6" height="6"/></g>
<g transform="translate(744,264) scale(4.12)"><rect width="6" height="6"/></g>
<g transform="translate(768,264) scale(4.12)"><rect width="6" height="6"/></g>
<g transform="translate(792,264) scale(4.12)"><rect width="6" height="6"/></g>
<g transform="translate(96,288) scale(4.12)"><rect width="6" height="6"/></g>
<g transform="translate(192,288) scale(4.12)"><rect width="6" height="6"/></g>
<g transform="translate(216,288) scale(4.12)"><rect width="6" height="6"/></g>
<g transform="translate(288,288) scale(4.12)"><rect width="6" height="6"/></g>
<g transform="translate(312,288) scale(4.12)"><rect width="6" height="6"/></g>
<g transform="translate(336,288) scale(4.12)"><rect width="6" height="6"/></g>
<g transform="translate(360,288) scale(4.12)"><rect width="6" height="6"/></g>
<g transform="translate(384,288) scale(4.12)"><rect width="6" height="6"/></g>
<g transform="translate(408,288) scale(4.12)"><rect width="6" height="6"/></g>
<g transform="translate(432,288) scale(4.12)"><rect width="6" height="6"/></g>
<g transform="translate(480,288) scale(4.12)"><rect width="6" height="6"/></g>
<g transform="translate(552,288) scale(4.12)"><rect width="6" height="6"/></g>
<g transform="translate(600,288) scale(4.12)"><rect width="6" height="6"/></g>
<g transform="translate(648,288) scale(4.12)"><rect width="6" height="6"/></g>
<g transform="translate(720,288) scale(4.12)"><rect width="6" height="6"/></g>
<g transform="translate(744,288) scale(4.12)"><rect width="6" height="6"/></g>
<g transform="translate(768,288) scale(4.12)"><rect width="6" height="6"/></g>
<g transform="translate(816,288) scale(4.12)"><rect width="6" height="6"/></g>
<g transform="translate(72,312) scale(4.12)"><rect width="6" height="6"/></g>
<g transform="translate(120,312) scale(4.12)"><rect width="6" height="6"/></g>
<g transform="translate(168,312) scale(4.12)"><rect width="6" height="6"/></g>
<g transform="translate(216,312) scale(4.12)"><rect width="6" height="6"/></g>
<g transform="translate(240,312) scale(4.12)"><rect width="6" height="6"/></g>
<g transform="translate(264,312) scale(4.12)"><rect width="6" height="6"/></g>
<g transform="translate(288,312) scale(4.12)"><rect width="6" height="6"/></g>
<g transform="translate(408,312) scale(4.12)"><rect width="6" height="6"/></g>
<g transform="translate(528,312) scale(4.12)"><rect width="6" height="6"/></g>
<g transform="translate(552,312) scale(4.12)"><rect width="6" height="6"/></g>
<g transform="translate(576,312) scale(4.12)"><rect width="6" height="6"/></g>
<g transform="translate(600,312) scale(4.12)"><rect width="6" height="6"/></g>
<g transform="translate(648,312) scale(4.12)"><rect width="6" height="6"/></g>
<g transform="translate(744,312) scale(4.12)"><rect width="6" height="6"/></g>
<g transform="translate(768,312) scale(4.12)"><rect width="6" height="6"/></g>
<g transform="translate(816,312) scale(4.12)"><rect width="6" height="6"/></g>
<g transform="translate(48,336) scale(4.12)"><rect width="6" height="6"/></g>
<g transform="translate(72,336) scale(4.12)"><rect width="6" height="6"/></g>
<g transform="translate(144,336) scale(4.12)"><rect width="6" height="6"/></g>
<g transform="translate(168,336) scale(4.12)"><rect width="6" height="6"/></g>
<g transform="translate(192,336) scale(4.12)"><rect width="6" height="6"/></g>
<g transform="translate(240,336) scale(4.12)"><rect width="6" height="6"/></g>
<g transform="translate(264,336) scale(4.12)"><rect width="6" height="6"/></g>
<g transform="translate(288,336) scale(4.12)"><rect width="6" height="6"/></g>
<g transform="translate(312,336) scale(4.12)"><rect width="6" height="6"/></g>
<g transform="translate(336,336) scale(4.12)"><rect width="6" height="6"/></g>
<g transform="translate(360,336) scale(4.12)"><rect width="6" height="6"/></g>
<g transform="translate(384,336) scale(4.12)"><rect width="6" height="6"/></g>
<g transform="translate(408,336) scale(4.12)"><rect width="6" height="6"/></g>
<g transform="translate(432,336) scale(4.12)"><rect width="6" height="6"/></g>
<g transform="translate(480,336) scale(4.12)"><rect width="6" height="6"/></g>
<g transform="translate(528,336) scale(4.12)"><rect width="6" height="6"/></g>
<g transform="translate(696,336) scale(4.12)"><rect width="6" height="6"/></g>
<g transform="translate(792,336) scale(4.12)"><rect width="6" height="6"/></g>
<g transform="translate(48,360) scale(4.12)"><rect width="6" height="6"/></g>
<g transform="translate(72,360) scale(4.12)"><rect width="6" height="6"/></g>
<g transform="translate(120,360) scale(4.12)"><rect width="6" height="6"/></g>
<g transform="translate(168,360) scale(4.12)"><rect width="6" height="6"/></g>
<g transform="translate(336,360) scale(4.12)"><rect width="6" height="6"/></g>
<g transform="translate(360,360) scale(4.12)"><rect width="6" height="6"/></g>
<g transform="translate(384,360) scale(4.12)"><rect width="6" height="6"/></g>
<g transform="translate(408,360) scale(4.12)"><rect width="6" height="6"/></g>
<g transform="translate(456,360) scale(4.12)"><rect width="6" height="6"/></g>
<g transform="translate(504,360) scale(4.12)"><rect width="6" height="6"/></g>
<g transform="translate(552,360) scale(4.12)"><rect width="6" height="6"/></g>
<g transform="translate(576,360) scale(4.12)"><rect width="6" height="6"/></g>
<g transform="translate(600,360) scale(4.12)"><rect width="6" height="6"/></g>
<g transform="translate(624,360) scale(4.12)"><rect width="6" height="6"/></g>
<g transform="translate(720,360) scale(4.12)"><rect width="6" height="6"/></g>
<g transform="translate(744,360) scale(4.12)"><rect width="6" height="6"/></g>
<g transform="translate(768,360) scale(4.12)"><rect width="6" height="6"/></g>
<g transform="translate(816,360) scale(4.12)"><rect width="6" height="6"/></g>
<g transform="translate(72,384) scale(4.12)"><rect width="6" height="6"/></g>
<g transform="translate(120,384) scale(4.12)"><rect width="6" height="6"/></g>
<g transform="translate(168,384) scale(4.12)"><rect width="6" height="6"/></g>
<g transform="translate(192,384) scale(4.12)"><rect width="6" height="6"/></g>
<g transform="translate(216,384) scale(4.12)"><rect width="6" height="6"/></g>
<g transform="translate(240,384) scale(4.12)"><rect width="6" height="6"/></g>
<g transform="translate(264,384) scale(4.12)"><rect width="6" height="6"/></g>
<g transform="translate(336,384) scale(4.12)"><rect width="6" height="6"/></g>
<g transform="translate(384,384) scale(4.12)"><rect width="6" height="6"/></g>
<g transform="translate(432,384) scale(4.12)"><rect width="6" height="6"/></g>
<g transform="translate(504,384) scale(4.12)"><rect width="6" height="6"/></g>
<g transform="translate(528,384) scale(4.12)"><rect width="6" height="6"/></g>
<g transform="translate(648,384) scale(4.12)"><rect width="6" height="6"/></g>
<g transform="translate(696,384) scale(4.12)"><rect width="6" height="6"/></g>
<g transform="translate(720,384) scale(4.12)"><rect width="6" height="6"/></g>
<g transform="translate(72,408) scale(4.12)"><rect width="6" height="6"/></g>
<g transform="translate(120,408) scale(4.12)"><rect width="6" height="6"/></g>
<g transform="translate(216,408) scale(4.12)"><rect width="6" height="6"/></g>
<g transform="translate(240,408) scale(4.12)"><rect width="6" height="6"/></g>
<g transform="translate(288,408) scale(4.12)"><rect width="6" height="6"/></g>
<g transform="translate(336,408) scale(4.12)"><rect width="6" height="6"/></g>
<g transform="translate(360,408) scale(4.12)"><rect width="6" height="6"/></g>
<g transform="translate(384,408) scale(4.12)"><rect width="6" height="6"/></g>
<g transform="translate(432,408) scale(4.12)"><rect width="6" height="6"/></g>
<g transform="translate(456,408) scale(4.12)"><rect width="6" height="6"/></g>
<g transform="translate(504,408) scale(4.12)"><rect width="6" height="6"/></g>
<g transform="translate(576,408) scale(4.12)"><rect width="6" height="6"/></g>
<g transform="translate(600,408) scale(4.12)"><rect width="6" height="6"/></g>
<g transform="translate(648,408) scale(4.12)"><rect width="6" height="6"/></g>
<g transform="translate(672,408) scale(4.12)"><rect width="6" height="6"/></g>
<g transform="translate(744,408) scale(4.12)"><rect width="6" height="6"/></g>
<g transform="translate(768,408) scale(4.12)"><rect width="6" height="6"/></g>
<g transform="translate(792,408) scale(4.12)"><rect width="6" height="6"/></g>
<g transform="translate(816,408) scale(4.12)"><rect width="6" height="6"/></g>
<g transform="translate(48,432) scale(4.12)"><rect width="6" height="6"/></g>
<g transform="translate(96,432) scale(4.12)"><rect width="6" height="6"/></g>
<g transform="translate(120,432) scale(4.12)"><rect width="6" height="6"/></g>
<g transform="translate(144,432) scale(4.12)"><rect width="6" height="6"/></g>
<g transform="translate(192,432) scale(4.12)"><rect width="6" height="6"/></g>
<g transform="translate(216,432) scale(4.12)"><rect width="6" height="6"/></g>
<g transform="translate(264,432) scale(4.12)"><rect width="6" height="6"/></g>
<g transform="translate(288,432) scale(4.12)"><rect width="6" height="6"/></g>
<g transform="translate(336,432) scale(4.12)"><rect width="6" height="6"/></g>
<g transform="translate(432,432) scale(4.12)"><rect width="6" height="6"/></g>
<g transform="translate(648,432) scale(4.12)"><rect width="6" height="6"/></g>
<g transform="translate(696,432) scale(4.12)"><rect width="6" height="6"/></g>
<g transform="translate(720,432) scale(4.12)"><rect width="6" height="6"/></g>
<g transform="translate(744,432) scale(4.12)"><rect width="6" height="6"/></g>
<g transform="translate(816,432) scale(4.12)"><rect width="6" height="6"/></g>
<g transform="translate(72,456) scale(4.12)"><rect width="6" height="6"/></g>
<g transform="translate(120,456) scale(4.12)"><rect width="6" height="6"/></g>
<g transform="translate(168,456) scale(4.12)"><rect width="6" height="6"/></g>
<g transform="translate(264,456) scale(4.12)"><rect width="6" height="6"/></g>
<g transform="translate(384,456) scale(4.12)"><rect width="6" height="6"/></g>
<g transform="translate(408,456) scale(4.12)"><rect width="6" height="6"/></g>
<g transform="translate(432,456) scale(4.12)"><rect width="6" height="6"/></g>
<g transform="translate(552,456) scale(4.12)"><rect width="6" height="6"/></g>
<g transform="translate(576,456) scale(4.12)"><rect width="6" height="6"/></g>
<g transform="translate(624,456) scale(4.12)"><rect width="6" height="6"/></g>
<g transform="translate(672,456) scale(4.12)"><rect width="6" height="6"/></g>
<g transform="translate(720,456) scale(4.12)"><rect width="6" height="6"/></g>
<g transform="translate(72,480) scale(4.12)"><rect width="6" height="6"/></g>
<g transform="translate(96,480) scale(4.12)"><rect width="6" height="6"/></g>
<g transform="translate(120,480) scale(4.12)"><rect width="6" height="6"/></g>
<g transform="translate(192,480) scale(4.12)"><rect width="6" height="6"/></g>
<g transform="translate(240,480) scale(4.12)"><rect width="6" height="6"/></g>
<g transform="translate(264,480) scale(4.12)"><rect width="6" height="6"/></g>
<g transform="translate(288,480) scale(4.12)"><rect width="6" height="6"/></g>
<g transform="translate(336,480) scale(4.12)"><rect width="6" height="6"/></g>
<g transform="translate(432,480) scale(4.12)"><rect width="6" height="6"/></g>
<g transform="translate(456,480) scale(4.12)"><rect width="6" height="6"/></g>
<g transform="translate(528,480) scale(4.12)"><rect width="6" height="6"/></g>
<g transform="translate(552,480) scale(4.12)"><rect width="6" height="6"/></g>
<g transform="translate(576,480) scale(4.12)"><rect width="6" height="6"/></g>
<g transform="translate(624,480) scale(4.12)"><rect width="6" height="6"/></g>
<g transform="translate(648,480) scale(4.12)"><rect width="6" height="6"/></g>
<g transform="translate(744,480) scale(4.12)"><rect width="6" height="6"/></g>
<g transform="translate(792,480) scale(4.12)"><rect width="6" height="6"/></g>
<g transform="translate(48,504) scale(4.12)"><rect width="6" height="6"/></g>
<g transform="translate(96,504) scale(4.12)"><rect width="6" height="6"/></g>
<g transform="translate(120,504) scale(4.12)"><rect width="6" height="6"/></g>
<g transform="translate(216,504) scale(4.12)"><rect width="6" height="6"/></g>
<g transform="translate(384,504) scale(4.12)"><rect width="6" height="6"/></g>
<g transform="translate(408,504) scale(4.12)"><rect width="6" height="6"/></g>
<g transform="translate(432,504) scale(4.12)"><rect width="6" height="6"/></g>
<g transform="translate(528,504) scale(4.12)"><rect width="6" height="6"/></g>
<g transform="translate(600,504) scale(4.12)"><rect width="6" height="6"/></g>
<g transform="translate(648,504) scale(4.12)"><rect width="6" height="6"/></g>
<g transform="translate(672,504) scale(4.12)"><rect width="6" height="6"/></g>
<g transform="translate(696,504) scale(4.12)"><rect width="6" height="6"/></g>
<g transform="translate(744,504) scale(4.12)"><rect width="6" height="6"/></g>
<g transform="translate(816,504) scale(4.12)"><rect width="6" height="6"/></g>
<g transform="translate(48,528) scale(4.12)"><rect width="6" height="6"/></g>
<g transform="translate(72,528) scale(4.12)"><rect width="6" height="6"/></g>
<g transform="translate(120,528) scale(4.12)"><rect width="6" height="6"/></g>
<g transform="translate(144,528) scale(4.12)"><rect width="6" height="6"/></g>
<g transform="translate(168,528) scale(4.12)"><rect width="6" height="6"/></g>
<g transform="translate(192,528) scale(4.12)"><rect width="6" height="6"/></g>
<g transform="translate(240,528) scale(4.12)"><rect width="6" height="6"/></g>
<g transform="translate(456,528) scale(4.12)"><rect width="6" height="6"/></g>
<g transform="translate(480,528) scale(4.12)"><rect width="6" height="6"/></g>
<g transform="translate(528,528) scale(4.12)"><rect width="6" height="6"/></g>
<g transform="translate(552,528) scale(4.12)"><rect width="6" height="6"/></g>
<g transform="translate(624,528) scale(4.12)"><rect width="6" height="6"/></g>
<g transform="translate(744,528) scale(4.12)"><rect width="6" height="6"/></g>
<g transform="translate(792,528) scale(4.12)"><rect width="6" height="6"/></g>
<g transform="translate(48,552) scale(4.12)"><rect width="6" height="6"/></g>
<g transform="translate(72,552) scale(4.12)"><rect width="6" height="6"/></g>
<g transform="translate(96,552) scale(4.12)"><rect width="6" height="6"/></g>
<g transform="translate(144,552) scale(4.12)"><rect width="6" height="6"/></g>
<g transform="translate(216,552) scale(4.12)"><rect width="6" height="6"/></g>
<g transform="translate(240,552) scale(4.12)"><rect width="6" height="6"/></g>
<g transform="translate(288,552) scale(4.12)"><rect width="6" height="6"/></g>
<g transform="translate(336,552) scale(4.12)"><rect width="6" height="6"/></g>
<g transform="translate(360,552) scale(4.12)"><rect width="6" height="6"/></g>
<g transform="translate(408,552) scale(4.12)"><rect width="6" height="6"/></g>
<g transform="translate(432,552) scale(4.12)"><rect width="6" height="6"/></g>
<g transform="translate(504,552) scale(4.12)"><rect width="6" height="6"/></g>
<g transform="translate(552,552) scale(4.12)"><rect width="6" height="6"/></g>
<g transform="translate(624,552) scale(4.12)"><rect width="6" height="6"/></g>
<g transform="translate(672,552) scale(4.12)"><rect width="6" height="6"/></g>
<g transform="translate(696,552) scale(4.12)"><rect width="6" height="6"/></g>
<g transform="translate(744,552) scale(4.12)"><rect width="6" height="6"/></g>
<g transform="translate(768,552) scale(4.12)"><rect width="6" height="6"/></g>
<g transform="translate(792,552) scale(4.12)"><rect width="6" height="6"/></g>
<g transform="translate(48,576) scale(4.12)"><rect width="6" height="6"/></g>
<g transform="translate(96,576) scale(4.12)"><rect width="6" height="6"/></g>
<g transform="translate(144,576) scale(4.12)"><rect width="6" height="6"/></g>
<g transform="translate(192,576) scale(4.12)"><rect width="6" height="6"/></g>
<g transform="translate(240,576) scale(4.12)"><rect width="6" height="6"/></g>
<g transform="translate(288,576) scale(4.12)"><rect width="6" height="6"/></g>
<g transform="translate(336,576) scale(4.12)"><rect width="6" height="6"/></g>
<g transform="translate(384,576) scale(4.12)"><rect width="6" height="6"/></g>
<g transform="translate(408,576) scale(4.12)"><rect width="6" height="6"/></g>
<g transform="translate(480,576) scale(4.12)"><rect width="6" height="6"/></g>
<g transform="translate(504,576) scale(4.12)"><rect width="6" height="6"/></g>
<g transform="translate(528,576) scale(4.12)"><rect width="6" height="6"/></g>
<g transform="translate(552,576) scale(4.12)"><rect width="6" height="6"/></g>
<g transform="translate(576,576) scale(4.12)"><rect width="6" height="6"/></g>
<g transform="translate(648,576) scale(4.12)"><rect width="6" height="6"/></g>
<g transform="translate(696,576) scale(4.12)"><rect width="6" height="6"/></g>
<g transform="translate(720,576) scale(4.12)"><rect width="6" height="6"/></g>
<g transform="translate(792,576) scale(4.12)"><rect width="6" height="6"/></g>
<g transform="translate(816,576) scale(4.12)"><rect width="6" height="6"/></g>
<g transform="translate(48,600) scale(4.12)"><rect width="6" height="6"/></g>
<g transform="translate(144,600) scale(4.12)"><rect width="6" height="6"/></g>
<g transform="translate(168,600) scale(4.12)"><rect width="6" height="6"/></g>
<g transform="translate(240,600) scale(4.12)"><rect width="6" height="6"/></g>
<g transform="translate(264,600) scale(4.12)"><rect width="6" height="6"/></g>
<g transform="translate(288,600) scale(4.12)"><rect width="6" height="6"/></g>
<g transform="translate(384,600) scale(4.12)"><rect width="6" height="6"/></g>
<g transform="translate(408,600) scale(4.12)"><rect width="6" height="6"/></g>
<g transform="translate(480,600) scale(4.12)"><rect width="6" height="6"/></g>
<g transform="translate(504,600) scale(4.12)"><rect width="6" height="6"/></g>
<g transform="translate(552,600) scale(4.12)"><rect width="6" height="6"/></g>
<g transform="translate(576,600) scale(4.12)"><rect width="6" height="6"/></g>
<g transform="translate(600,600) scale(4.12)"><rect width="6" height="6"/></g>
<g transform="translate(648,600) scale(4.12)"><rect width="6" height="6"/></g>
<g transform="translate(792,600) scale(4.12)"><rect width="6" height="6"/></g>
<g transform="translate(816,600) scale(4.12)"><rect width="6" height="6"/></g>
<g transform="translate(48,624) scale(4.12)"><rect width="6" height="6"/></g>
<g transform="translate(144,624) scale(4.12)"><rect width="6" height="6"/></g>
<g transform="translate(168,624) scale(4.12)"><rect width="6" height="6"/></g>
<g transform="translate(192,624) scale(4.12)"><rect width="6" height="6"/></g>
<g transform="translate(240,624) scale(4.12)"><rect width="6" height="6"/></g>
<g transform="translate(264,624) scale(4.12)"><rect width="6" height="6"/></g>
<g transform="translate(312,624) scale(4.12)"><rect width="6" height="6"/></g>
<g transform="translate(336,624) scale(4.12)"><rect width="6" height="6"/></g>
<g transform="translate(384,624) scale(4.12)"><rect width="6" height="6"/></g>
<g transform="translate(408,624) scale(4.12)"><rect width="6" height="6"/></g>
<g transform="translate(456,624) scale(4.12)"><rect width="6" height="6"/></g>
<g transform="translate(480,624) scale(4.12)"><rect width="6" height="6"/></g>
<g transform="translate(528,624) scale(4.12)"><rect width="6" height="6"/></g>
<g transform="translate(552,624) scale(4.12)"><rect width="6" height="6"/></g>
<g transform="translate(576,624) scale(4.12)"><rect width="6" height="6"/></g>
<g transform="translate(624,624) scale(4.12)"><rect width="6" height="6"/></g>
<g transform="translate(648,624) scale(4.12)"><rect width="6" height="6"/></g>
<g transform="translate(672,624) scale(4.12)"><rect width="6" height="6"/></g>
<g transform="translate(696,624) scale(4.12)"><rect width="6" height="6"/></g>
<g transform="translate(720,624) scale(4.12)"><rect width="6" height="6"/></g>
<g transform="translate(744,624) scale(4.12)"><rect width="6" height="6"/></g>
<g transform="translate(768,624) scale(4.12)"><rect width="6" height="6"/></g>
<g transform="translate(240,648) scale(4.12)"><rect width="6" height="6"/></g>
<g transform="translate(264,648) scale(4.12)"><rect width="6" height="6"/></g>
<g transform="translate(312,648) scale(4.12)"><rect width="6" height="6"/></g>
<g transform="translate(336,648) scale(4.12)"><rect width="6" height="6"/></g>
<g transform="translate(384,648) scale(4.12)"><rect width="6" height="6"/></g>
<g transform="translate(432,648) scale(4.12)"><rect width="6" height="6"/></g>
<g transform="translate(480,648) scale(4.12)"><rect width="6" height="6"/></g>
<g transform="translate(504,648) scale(4.12)"><rect width="6" height="6"/></g>
<g transform="translate(528,648) scale(4.12)"><rect width="6" height="6"/></g>
<g transform="translate(552,648) scale(4.12)"><rect width="6" height="6"/></g>
<g transform="translate(624,648) scale(4.12)"><rect width="6" height="6"/></g>
<g transform="translate(720,648) scale(4.12)"><rect width="6" height="6"/></g>
<g transform="translate(744,648) scale(4.12)"><rect width="6" height="6"/></g>
<g transform="translate(768,648) scale(4.12)"><rect width="6" height="6"/></g>
<g transform="translate(816,648) scale(4.12)"><rect width="6" height="6"/></g>
<g transform="translate(240,672) scale(4.12)"><rect width="6" height="6"/></g>
<g transform="translate(360,672) scale(4.12)"><rect width="6" height="6"/></g>
<g transform="translate(528,672) scale(4.12)"><rect width="6" height="6"/></g>
<g transform="translate(552,672) scale(4.12)"><rect width="6" height="6"/></g>
<g transform="translate(624,672) scale(4.12)"><rect width="6" height="6"/></g>
<g transform="translate(672,672) scale(4.12)"><rect width="6" height="6"/></g>
<g transform="translate(720,672) scale(4.12)"><rect width="6" height="6"/></g>
<g transform="translate(816,672) scale(4.12)"><rect width="6" height="6"/></g>
<g transform="translate(240,696) scale(4.12)"><rect width="6" height="6"/></g>
<g transform="translate(264,696) scale(4.12)"><rect width="6" height="6"/></g>
<g transform="translate(288,696) scale(4.12)"><rect width="6" height="6"/></g>
<g transform="translate(312,696) scale(4.12)"><rect width="6" height="6"/></g>
<g transform="translate(384,696) scale(4.12)"><rect width="6" height="6"/></g>
<g transform="translate(432,696) scale(4.12)"><rect width="6" height="6"/></g>
<g transform="translate(456,696) scale(4.12)"><rect width="6" height="6"/></g>
<g transform="translate(528,696) scale(4.12)"><rect width="6" height="6"/></g>
<g transform="translate(552,696) scale(4.12)"><rect width="6" height="6"/></g>
<g transform="translate(600,696) scale(4.12)"><rect width="6" height="6"/></g>
<g transform="translate(624,696) scale(4.12)"><rect width="6" height="6"/></g>
<g transform="translate(720,696) scale(4.12)"><rect width="6" height="6"/></g>
<g transform="translate(768,696) scale(4.12)"><rect width="6" height="6"/></g>
<g transform="translate(792,696) scale(4.12)"><rect width="6" height="6"/></g>
<g transform="translate(816,696) scale(4.12)"><rect width="6" height="6"/></g>
<g transform="translate(240,720) scale(4.12)"><rect width="6" height="6"/></g>
<g transform="translate(288,720) scale(4.12)"><rect width="6" height="6"/></g>
<g transform="translate(336,720) scale(4.12)"><rect width="6" height="6"/></g>
<g transform="translate(360,720) scale(4.12)"><rect width="6" height="6"/></g>
<g transform="translate(384,720) scale(4.12)"><rect width="6" height="6"/></g>
<g transform="translate(456,720) scale(4.12)"><rect width="6" height="6"/></g>
<g transform="translate(480,720) scale(4.12)"><rect width="6" height="6"/></g>
<g transform="translate(552,720) scale(4.12)"><rect width="6" height="6"/></g>
<g transform="translate(576,720) scale(4.12)"><rect width="6" height="6"/></g>
<g transform="translate(600,720) scale(4.12)"><rect width="6" height="6"/></g>
<g transform="translate(624,720) scale(4.12)"><rect width="6" height="6"/></g>
<g transform="translate(648,720) scale(4.12)"><rect width="6" height="6"/></g>
<g transform="translate(672,720) scale(4.12)"><rect width="6" height="6"/></g>
<g transform="translate(696,720) scale(4.12)"><rect width="6" height="6"/></g>
<g transform="translate(720,720) scale(4.12)"><rect width="6" height="6"/></g>
<g transform="translate(240,744) scale(4.12)"><rect width="6" height="6"/></g>
<g transform="translate(264,744) scale(4.12)"><rect width="6" height="6"/></g>
<g transform="translate(288,744) scale(4.12)"><rect width="6" height="6"/></g>
<g transform="translate(408,744) scale(4.12)"><rect width="6" height="6"/></g>
<g transform="translate(432,744) scale(4.12)"><rect width="6" height="6"/></g>
<g transform="translate(504,744) scale(4.12)"><rect width="6" height="6"/></g>
<g transform="translate(552,744) scale(4.12)"><rect width="6" height="6"/></g>
<g transform="translate(696,744) scale(4.12)"><rect width="6" height="6"/></g>
<g transform="translate(744,744) scale(4.12)"><rect width="6" height="6"/></g>
<g transform="translate(768,744) scale(4.12)"><rect width="6" height="6"/></g>
<g transform="translate(240,768) scale(4.12)"><rect width="6" height="6"/></g>
<g transform="translate(288,768) scale(4.12)"><rect width="6" height="6"/></g>
<g transform="translate(312,768) scale(4.12)"><rect width="6" height="6"/></g>
<g transform="translate(336,768) scale(4.12)"><rect width="6" height="6"/></g>
<g transform="translate(360,768) scale(4.12)"><rect width="6" height="6"/></g>
<g transform="translate(384,768) scale(4.12)"><rect width="6" height="6"/></g>
<g transform="translate(432,768) scale(4.12)"><rect width="6" height="6"/></g>
<g transform="translate(456,768) scale(4.12)"><rect width="6" height="6"/></g>
<g transform="translate(480,768) scale(4.12)"><rect width="6" height="6"/></g>
<g transform="translate(600,768) scale(4.12)"><rect width="6" height="6"/></g>
<g transform="translate(624,768) scale(4.12)"><rect width="6" height="6"/></g>
<g transform="translate(744,768) scale(4.12)"><rect width="6" height="6"/></g>
<g transform="translate(240,792) scale(4.12)"><rect width="6" height="6"/></g>
<g transform="translate(288,792) scale(4.12)"><rect width="6" height="6"/></g>
<g transform="translate(312,792) scale(4.12)"><rect width="6" height="6"/></g>
<g transform="translate(384,792) scale(4.12)"><rect width="6" height="6"/></g>
<g transform="translate(408,792) scale(4.12)"><rect width="6" height="6"/></g>
<g transform="translate(456,792) scale(4.12)"><rect width="6" height="6"/></g>
<g transform="translate(576,792) scale(4.12)"><rect width="6" height="6"/></g>
<g transform="translate(600,792) scale(4.12)"><rect width="6" height="6"/></g>
<g transform="translate(648,792) scale(4.12)"><rect width="6" height="6"/></g>
<g transform="translate(696,792) scale(4.12)"><rect width="6" height="6"/></g>
<g transform="translate(744,792) scale(4.12)"><rect width="6" height="6"/></g>
<g transform="translate(768,792) scale(4.12)"><rect width="6" height="6"/></g>
<g transform="translate(816,792) scale(4.12)"><rect width="6" height="6"/></g>
<g transform="translate(264,816) scale(4.12)"><rect width="6" height="6"/></g>
<g transform="translate(288,816) scale(4.12)"><rect width="6" height="6"/></g>
<g transform="translate(336,816) scale(4.12)"><rect width="6" height="6"/></g>
<g transform="translate(384,816) scale(4.12)"><rect width="6" height="6"/></g>
<g transform="translate(432,816) scale(4.12)"><rect width="6" height="6"/></g>
<g transform="translate(456,816) scale(4.12)"><rect width="6" height="6"/></g>
<g transform="translate(600,816) scale(4.12)"><rect width="6" height="6"/></g>
<g transform="translate(672,816) scale(4.12)"><rect width="6" height="6"/></g>
<g transform="translate(720,816) scale(4.12)"><rect width="6" height="6"/></g>
<g transform="translate(768,816) scale(4.12)"><rect width="6" height="6"/></g>
<g transform="translate(48,48)"><g transform="scale(12)"><path d="M0,0v14h14V0H0z M12,12H2V2h10V12z"/></g></g>
<g transform="translate(672,48)"><g transform="scale(12)"><path d="M0,0v14h14V0H0z M12,12H2V2h10V12z"/></g></g>
<g transform="translate(48,672)"><g transform="scale(12)"><path d="M0,0v14h14V0H0z M12,12H2V2h10V12z"/></g></g>
<g transform="translate(96,96)"><g transform="scale(12)"><rect width="6" height="6"/></g></g>
<g transform="translate(720,96)"><g transform="scale(12)"><rect width="6" height="6"/></g></g>
<g transform="translate(96,720)"><g transform="scale(12)"><rect width="6" height="6"/></g></g>
</g></svg>
