<?xml version="1.0" encoding="UTF-8"?>
<svg id="Layer_1" xmlns="http://www.w3.org/2000/svg" version="1.1" viewBox="0 0 24 24">
  <!-- Generator: Adobe Illustrator 29.5.1, SVG Export Plug-In . SVG Version: 2.1.0 Build 141)  -->
  <defs>
    <style>
      .st0 {
        fill: #fff;
      }
    </style>
  </defs>
  <path class="st0" d="M12,20c-2.2,0-4.2-.9-5.7-2.3l11.3-11.3c1.4,1.4,2.3,3.4,2.3,5.7,0,4.4-3.6,8-8,8M6,8h2v-2h1.5v2h2v1.5h-2v2h-1.5v-2h-2M12,2C6.5,2,2,6.5,2,12s4.5,10,10,10,10-4.5,10-10S17.5,2,12,2M12,16h5v-1.5h-5v1.5Z"/>
</svg>