<?xml version="1.0" encoding="UTF-8"?>
<svg id="Layer_1" xmlns="http://www.w3.org/2000/svg" version="1.1" viewBox="0 0 24 24">
  <!-- Generator: Adobe Illustrator 29.5.1, SVG Export Plug-In . SVG Version: 2.1.0 Build 141)  -->
  <defs>
    <style>
      .st0 {
        fill: #fff;
      }
    </style>
  </defs>
  <path class="st0" d="M22,6.8h-.2v10.5h.2c.7,0,1.3-.6,1.3-1.3v-7.9c0-.7-.6-1.3-1.3-1.3Z"/>
  <path class="st0" d="M2.2,6.8h-.2c-.7,0-1.3.6-1.3,1.3v7.9c0,.7.6,1.3,1.3,1.3h.2V6.8Z"/>
  <g>
    <path class="st0" d="M4.5,10.1v-3.3h15v3.2s0,0,0,0l1.4,1.1v-4.4c0-.8-.7-1.5-1.5-1.5H4.5c-.8,0-1.5.7-1.5,1.5v4.5l1.5-1.2s0,0,0,0Z"/>
    <path class="st0" d="M19.6,14.5s0,0,0,0v2.8H4.5v-2.8s0,0,0,0l-1.5-1.2v4c0,.8.7,1.5,1.5,1.5h15c.8,0,1.5-.7,1.5-1.5v-4l-1.4,1.1Z"/>
  </g>
  <polygon class="st0" points="5.1 13.7 3.3 12.3 5.1 10.9 5.1 13.7"/>
  <polygon class="st0" points="19 10.9 20.7 12.3 19 13.7 19 10.9"/>
</svg>