<?xml version="1.0" encoding="UTF-8"?>
<svg id="Layer_1" xmlns="http://www.w3.org/2000/svg" version="1.1" viewBox="0 0 24 24">
  <!-- Generator: Adobe Illustrator 29.5.1, SVG Export Plug-In . SVG Version: 2.1.0 Build 141)  -->
  <defs>
    <style>
      .st0 {
        fill: #fff;
      }
    </style>
  </defs>
  <path class="st0" d="M11,9h2v2h-2v-2M9,11h2v2h-2v-2M13,11h2v2h-2v-2M15,9h2v2h-2v-2M7,9h2v2h-2v-2M19,3H5c-1.1,0-2,.9-2,2v14c0,1.1.9,2,2,2h14c1.1,0,2-.9,2-2V5c0-1.1-.9-2-2-2M9,18h-2v-2h2v2M13,18h-2v-2h2v2M17,18h-2v-2h2v2M19,11h-2v2h2v2h-2v-2h-2v2h-2v-2h-2v2h-2v-2h-2v2h-2v-2h2v-2h-2v-6h14v6Z"/>
</svg>