<?xml version="1.0" encoding="UTF-8"?>
<svg id="Layer_1" xmlns="http://www.w3.org/2000/svg" version="1.1" viewBox="0 0 24 24">
  <!-- Generator: Adobe Illustrator 29.5.1, SVG Export Plug-In . SVG Version: 2.1.0 Build 141)  -->
  <defs>
    <style>
      .st0 {
        fill: #fff;
      }
    </style>
  </defs>
  <path class="st0" d="M5,3h14c1.1,0,2,.9,2,2v14c0,1.1-.9,2-2,2H5c-1.1,0-2-.9-2-2V5c0-1.1.9-2,2-2M12,17l.7-.7c2.6-2.3,4.3-3.9,4.3-5.8s-1.2-2.7-2.8-2.7-1.7.4-2.2,1c-.6-.6-1.4-1-2.2-1-1.5,0-2.8,1.2-2.8,2.7s1.7,3.4,4.3,5.8l.7.7Z"/>
</svg>