<?xml version="1.0" encoding="UTF-8"?>
<svg id="Layer_1" xmlns="http://www.w3.org/2000/svg" version="1.1" viewBox="0 0 24 24">
  <!-- Generator: Adobe Illustrator 29.5.1, SVG Export Plug-In . SVG Version: 2.1.0 Build 141)  -->
  <defs>
    <style>
      .st0 {
        fill: #fff;
      }
    </style>
  </defs>
  <path class="st0" d="M11,15.5h1.5v1.5h-1.5v-1.5M12,6.9c2.7.1,3.9,2.8,2.3,4.9-.4.5-1.1.8-1.4,1.3-.4.4-.4.9-.4,1.4h-1.5c0-.9,0-1.6.4-2.1.3-.5,1-.8,1.4-1.1,1.2-1.1.9-2.7-.8-2.9-.8,0-1.5.7-1.5,1.5h-1.5c0-1.7,1.4-3,3-3M12,2c-.5,0-1,.2-1.4.6L2.6,10.6c-.8.8-.8,2,0,2.8l8,8c.8.8,2,.8,2.8,0l8-8c.8-.8.8-2,0-2.8L13.4,2.6c-.4-.4-.9-.6-1.4-.6M12,4l8,8-8,8L4,12,12,4Z"/>
</svg>