<?xml version="1.0" encoding="UTF-8"?>
<svg id="Layer_1" xmlns="http://www.w3.org/2000/svg" version="1.1" viewBox="0 0 24 24">
  <!-- Generator: Adobe Illustrator 29.5.1, SVG Export Plug-In . SVG Version: 2.1.0 Build 141)  -->
  <defs>
    <style>
      .st0 {
        fill: #fff;
      }
    </style>
  </defs>
  <path class="st0" d="M12,5.5l-2,2.5h4l-2-2.5M18,10v4l2.5-2-2.5-2M6,10l-2.5,2,2.5,2v-4M14,16h-4l2,2.5,2-2.5M21,3H3c-1.1,0-2,.9-2,2v14c0,1.1.9,2,2,2h18c1.1,0,2-.9,2-2V5c0-1.1-.9-2-2-2M21,19H3V5h18v14Z"/>
</svg>