<?xml version="1.0" encoding="UTF-8"?>
<svg id="Layer_1" xmlns="http://www.w3.org/2000/svg" version="1.1" viewBox="0 0 24 24">
  <!-- Generator: Adobe Illustrator 29.5.1, SVG Export Plug-In . SVG Version: 2.1.0 Build 141)  -->
  <defs>
    <style>
      .st0 {
        fill: #fff;
      }
    </style>
  </defs>
  <path class="st0" d="M17.5,12c-.8,0-1.5-.7-1.5-1.5s.7-1.5,1.5-1.5,1.5.7,1.5,1.5-.7,1.5-1.5,1.5M14.5,8c-.8,0-1.5-.7-1.5-1.5s.7-1.5,1.5-1.5,1.5.7,1.5,1.5-.7,1.5-1.5,1.5M9.5,8c-.8,0-1.5-.7-1.5-1.5s.7-1.5,1.5-1.5,1.5.7,1.5,1.5-.7,1.5-1.5,1.5M6.5,12c-.8,0-1.5-.7-1.5-1.5s.7-1.5,1.5-1.5,1.5.7,1.5,1.5-.7,1.5-1.5,1.5M12,3C7,3,3,7,3,12s4,9,9,9,1.5-.7,1.5-1.5-.1-.7-.4-1c-.2-.3-.4-.6-.4-1,0-.8.7-1.5,1.5-1.5h1.8c2.8,0,5-2.2,5-5,0-4.4-4-8-9-8Z"/>
</svg>