<?xml version="1.0" encoding="UTF-8"?>
<svg id="Layer_1" xmlns="http://www.w3.org/2000/svg" version="1.1" viewBox="0 0 24 24">
  <!-- Generator: Adobe Illustrator 29.5.1, SVG Export Plug-In . SVG Version: 2.1.0 Build 141)  -->
  <defs>
    <style>
      .st0 {
        fill: #fff;
      }
    </style>
  </defs>
  <polygon class="st0" points="4.8 8.4 8.4 12 4.8 15.6 6.2 17 9.8 13.4 13.4 17 14.8 15.6 11.2 12 14.8 8.4 13.4 7 9.8 10.6 6.2 7 4.8 8.4"/>
  <g>
    <path class="st0" d="M2.8,14.7l.5-.5,2.2-2.2-2.2-2.2-.5-.5c-.9.5-1.8,1.5-1.8,2.7s.7,2.2,1.7,2.7h0Z"/>
    <polygon class="st0" points="14 12 15 13 19.1 13 19.1 16 23.1 12 19.1 8 19.1 11 15 11 14 12"/>
  </g>
</svg>