<?xml version="1.0" encoding="UTF-8"?>
<svg id="Layer_1" xmlns="http://www.w3.org/2000/svg" version="1.1" viewBox="0 0 24 24">
  <!-- Generator: Adobe Illustrator 29.5.1, SVG Export Plug-In . SVG Version: 2.1.0 Build 141)  -->
  <defs>
    <style>
      .st0 {
        fill: #fff;
      }
    </style>
  </defs>
  <polygon class="st0" points="19.3 15.6 15.7 12 19.3 8.4 17.9 7 14.3 10.6 10.7 7 9.3 8.4 12.9 12 9.3 15.6 10.7 17 14.3 13.4 17.9 17 19.3 15.6"/>
  <g>
    <path class="st0" d="M21.3,9.3l-.5.5-2.2,2.2,2.2,2.2.5.5c.9-.5,1.8-1.5,1.8-2.7s-.7-2.2-1.7-2.7Z"/>
    <polygon class="st0" points="10.1 12 9.1 11 5 11 5 8 1 12 5 16 5 13 9.1 13 10.1 12"/>
  </g>
</svg>