<?xml version="1.0" encoding="UTF-8"?>
<svg id="Layer_1" xmlns="http://www.w3.org/2000/svg" version="1.1" viewBox="0 0 18 20">
  <!-- Generator: Adobe Illustrator 30.6.0, SVG Export Plug-In . SVG Version: 2.1.4 Build 109)  -->
  <defs>
    <style>
      .st0 {
        fill: #fff;
      }
    </style>
  </defs>
  <path class="st0" d="M9,0C4,0,0,4,0,9s1.5,5.8,4,7.5v3.5h2v-3h2v3h2v-3h2v3h2v-3.5c2.5-1.6,4-4.5,4-7.5C18,4,14,0,9,0M5,9c1.1,0,2,.9,2,2s-.9,2-2,2-2-.9-2-2,.9-2,2-2M13,9c1.1,0,2,.9,2,2s-.9,2-2,2-2-.9-2-2,.9-2,2-2M9,12l1.5,3h-3l1.5-3Z"/>
</svg>