<?xml version="1.0" encoding="UTF-8"?>
<svg id="Layer_1" xmlns="http://www.w3.org/2000/svg" version="1.1" viewBox="0 0 24 24">
  <!-- Generator: Adobe Illustrator 29.5.1, SVG Export Plug-In . SVG Version: 2.1.0 Build 141)  -->
  <defs>
    <style>
      .st0 {
        fill: #fff;
      }
    </style>
  </defs>
  <path class="st0" d="M12,16c-1.7,0-3-1.3-3-3s.6-2.1,1.5-2.6l9.7-5.6-5.5,9.6c-.5,1-1.5,1.6-2.7,1.6M12,3c1.8,0,3.5.5,5,1.3l-2.1,1.2c-.9-.3-1.9-.5-2.9-.5-4.4,0-8,3.6-8,8s.9,4.2,2.3,5.6h0c.4.4.4,1,0,1.4-.4.4-1,.4-1.4,0h0c-1.8-1.8-2.9-4.3-2.9-7.1C2,7.5,6.5,3,12,3M22,13c0,2.8-1.1,5.3-2.9,7.1h0c-.4.4-1,.4-1.4,0-.4-.4-.4-1,0-1.4h0c1.5-1.4,2.3-3.4,2.3-5.6s-.2-2-.5-2.9l1.2-2.1c.8,1.5,1.3,3.2,1.3,5Z"/>
</svg>