<?xml version="1.0" encoding="UTF-8"?>
<svg id="Layer_1" xmlns="http://www.w3.org/2000/svg" version="1.1" viewBox="0 0 24 24">
  <!-- Generator: Adobe Illustrator 29.5.1, SVG Export Plug-In . SVG Version: 2.1.0 Build 141)  -->
  <defs>
    <style>
      .st0 {
        fill: #fff;
      }
    </style>
  </defs>
  <path class="st0" d="M12,1.4l-2.9,10.7c-.3,1-.1,2.2.7,3.1,1.2,1.2,3.1,1.2,4.2,0,.8-.8,1.1-1.9.8-2.9M14.6,3.3l.6,2.3c2.8,1.2,4.8,4,4.8,7.3s-.9,4.2-2.3,5.6h0c-.4.4-.4,1,0,1.4s1,.4,1.4,0c1.8-1.8,2.9-4.3,2.9-7.1,0-4.6-3.1-8.5-7.4-9.7M9.4,3.4c-4.2,1.1-7.4,5-7.4,9.6s1.1,5.3,2.9,7.1c.4.4,1,.4,1.4,0,.4-.4.4-1,0-1.4-1.5-1.4-2.3-3.4-2.3-5.6,0-3.4,1.9-6.1,4.8-7.3"/>
</svg>