<?xml version="1.0" encoding="UTF-8"?>
<svg id="Layer_1" xmlns="http://www.w3.org/2000/svg" version="1.1" viewBox="0 0 24 24">
  <!-- Generator: Adobe Illustrator 29.5.1, SVG Export Plug-In . SVG Version: 2.1.0 Build 141)  -->
  <defs>
    <style>
      .st0 {
        fill: #fff;
      }
    </style>
  </defs>
  <path class="st0" d="M8.2,3l-1.4,1.4,2.6,2.6h-5.3c-1.1,0-2,.9-2,2v10c0,1.1.9,2,2,2h16c1.1,0,2-.9,2-2v-10c0-1.1-.9-2-2-2h-5.3l2.6-2.6-1.4-1.4-3.8,3.8-3.8-3.8M4,9h13v10H4v-10M19.5,9c.6,0,1,.4,1,1s-.4,1-1,1-1-.4-1-1,.4-1,1-1M19.5,12c.6,0,1,.4,1,1s-.4,1-1,1-1-.4-1-1,.4-1,1-1Z"/>
  <path class="st0" d="M14.8,10h-1.5l-1.2,1.2v2.9l1.2,1.2h1.5l1.2-1.2v-2.9l-1.2-1.2ZM15,13.6c0,.4-.3.8-.8.8h-.5c-.4,0-.8-.3-.8-.8v-1.9c0-.4.3-.8.8-.8h.5c.4,0,.8.3.8.8v1.9Z"/>
  <rect class="st0" x="13.4" y="10.5" width="1" height="4.4" transform="translate(9 -5.5) rotate(32.5)"/>
</svg>