<?xml version="1.0" encoding="UTF-8"?>
<svg id="Layer_1" xmlns="http://www.w3.org/2000/svg" version="1.1" viewBox="0 0 24 24">
  <!-- Generator: Adobe Illustrator 29.5.1, SVG Export Plug-In . SVG Version: 2.1.0 Build 141)  -->
  <defs>
    <style>
      .st0 {
        fill: #fff;
      }
    </style>
  </defs>
  <polyline class="st0" points="15.1 4.7 16.5 6.1 15.1 7.5 13.7 6.1 15.1 4.7"/>
  <polyline class="st0" points="17.9 7.5 19.3 8.9 17.9 10.3 16.5 8.9 17.9 7.5"/>
  <path class="st0" d="M23,9c0-.2,0-.5-.2-.6h0S15.7,1.3,15.7,1.3c-.2-.2-.4-.3-.7-.3s-.5.1-.7.3l-3.8,3.8-.7-.8-6.7,6.7c-1.3,1.3-2,3-2,5,0,3.9,3.1,7,7,7s3.7-.8,5-2l6.7-6.7-.7-.7,3.7-3.7c.2-.2.3-.5.3-.8ZM8.5,19.7l-4.5-4.5h2.6v-3.8h3.8v3.8h2.6l-4.5,4.5ZM17.5,12.1l-5.6-5.6,3.1-3.1,5.6,5.6-3.1,3.1Z"/>
</svg>