<?xml version="1.0" encoding="UTF-8"?>
<svg id="Layer_1" xmlns="http://www.w3.org/2000/svg" version="1.1" viewBox="0 0 24 24">
  <!-- Generator: Adobe Illustrator 29.5.1, SVG Export Plug-In . SVG Version: 2.1.0 Build 141)  -->
  <defs>
    <style>
      .st0 {
        fill: #fff;
      }
    </style>
  </defs>
  <path class="st0" d="M12,21l3.6-4.8c-1-.8-2.2-1.2-3.6-1.2s-2.6.4-3.6,1.2l3.6,4.8M12,3c-4.1,0-7.8,1.3-10.8,3.6l1.8,2.4c2.5-1.9,5.6-3,9-3s6.5,1.1,9,3l1.8-2.4c-3-2.3-6.8-3.6-10.8-3.6M12,9c-2.7,0-5.2.9-7.2,2.4l1.8,2.4c1.5-1.1,3.4-1.8,5.4-1.8s3.9.7,5.4,1.8l1.8-2.4c-2-1.5-4.5-2.4-7.2-2.4Z"/>
</svg>